<svg width="29" height="32" viewBox="0 0 29 32" fill="none" xmlns="http://www.w3.org/2000/svg">
<path d="M10.403 29V20.9741C10.403 19.8696 11.2984 18.9741 12.403 18.9741H16.597C17.7016 18.9741 18.597 19.8696 18.597 20.9741V29C18.597 30.1046 19.4924 31 20.597 31H26C27.1046 31 28 30.1046 28 29V19.6104C28 19.1965 27.8715 18.7927 27.6323 18.4548L16.1914 2.29426C15.3967 1.17166 13.7322 1.16775 12.9322 2.2866L1.37311 18.4523C1.13046 18.7917 1 19.1984 1 19.6156V29C1 30.1046 1.89543 31 3 31H8.40299C9.50756 31 10.403 30.1046 10.403 29Z" stroke="#1A305B" stroke-width="1.5"/>
</svg>
