<svg width="24" height="28" viewBox="0 0 24 28" fill="none" xmlns="http://www.w3.org/2000/svg">
<path d="M23.5303 6.53033C23.8232 6.23744 23.8232 5.76256 23.5303 5.46967L18.7574 0.696699C18.4645 0.403806 17.9896 0.403806 17.6967 0.696699C17.4038 0.989593 17.4038 1.46447 17.6967 1.75736L21.9393 6L17.6967 10.2426C17.4038 10.5355 17.4038 11.0104 17.6967 11.3033C17.9896 11.5962 18.4645 11.5962 18.7574 11.3033L23.5303 6.53033ZM1 6.75H23V5.25H1V6.75Z" fill="#1A305B"/>
<path d="M0.469669 21.4697C0.176777 21.7626 0.176777 22.2374 0.469669 22.5303L5.24264 27.3033C5.53553 27.5962 6.01041 27.5962 6.3033 27.3033C6.59619 27.0104 6.59619 26.5355 6.3033 26.2426L2.06066 22L6.3033 17.7574C6.59619 17.4645 6.59619 16.9896 6.3033 16.6967C6.01041 16.4038 5.53553 16.4038 5.24264 16.6967L0.469669 21.4697ZM23 21.25L1 21.25L1 22.75L23 22.75L23 21.25Z" fill="#1A305B"/>
</svg>
