<svg width="25" height="25" viewBox="0 0 25 25" fill="none" xmlns="http://www.w3.org/2000/svg">
<path d="M15.2799 14.91C15.2799 15.4893 15.0892 15.9697 14.7079 16.351C14.3339 16.7323 13.8206 16.9707 13.1679 17.066V17.869H11.9579V17.066C11.5106 17 11.1036 16.8533 10.7369 16.626C10.3776 16.3987 10.0769 16.1053 9.83491 15.746L10.7479 14.866C10.9899 15.152 11.2832 15.3867 11.6279 15.57C11.9726 15.7533 12.2952 15.845 12.5959 15.845C12.9332 15.845 13.2046 15.768 13.4099 15.614C13.6152 15.46 13.7179 15.2583 13.7179 15.009C13.7179 14.8257 13.6849 14.6753 13.6189 14.558C13.5529 14.4407 13.4282 14.3233 13.2449 14.206C13.0616 14.0813 12.7609 13.9163 12.3429 13.711C11.7929 13.4397 11.3602 13.1867 11.0449 12.952C10.7296 12.7173 10.4949 12.4643 10.3409 12.193C10.1942 11.9143 10.1209 11.5917 10.1209 11.225C10.1209 10.719 10.2859 10.2937 10.6159 9.949C10.9459 9.597 11.3932 9.366 11.9579 9.256V8.541H13.1679V9.223C13.6152 9.28167 14.0076 9.41367 14.3449 9.619C14.6822 9.817 14.9352 10.0737 15.1039 10.389L14.1029 11.137C13.7362 10.6823 13.2852 10.455 12.7499 10.455C12.4126 10.455 12.1522 10.521 11.9689 10.653C11.7856 10.785 11.6939 10.972 11.6939 11.214C11.6939 11.3607 11.7379 11.4927 11.8259 11.61C11.9212 11.7273 12.0899 11.8557 12.3319 11.995C12.5739 12.1343 12.9369 12.3177 13.4209 12.545C13.8902 12.765 14.2569 12.985 14.5209 13.205C14.7922 13.425 14.9866 13.6707 15.1039 13.942C15.2212 14.2133 15.2799 14.536 15.2799 14.91Z" fill="#1A305B"/>
<circle cx="12.5" cy="12.5" r="11.75" stroke="#1A305B" stroke-width="1.5"/>
</svg>
